<?xml version="1.0" standalone="no"?>
<!DOCTYPE svg PUBLIC "-//W3C//DTD SVG 20010904//EN"
 "http://www.w3.org/TR/2001/REC-SVG-20010904/DTD/svg10.dtd">
<svg version="1.0" xmlns="http://www.w3.org/2000/svg"
 width="5000.000000pt" height="5000.000000pt" viewBox="0 0 5000.000000 5000.000000"
 preserveAspectRatio="xMidYMid meet">

<g transform="translate(0.000000,5000.000000) scale(0.100000,-0.100000)"
fill="#000000" stroke="none">
<path d="M13662 40307 l-1362 -1362 0 -13945 0 -13945 1365 -1365 1365 -1365
0 16673 c0 9169 -1 16672 -3 16672 -1 0 -615 -613 -1365 -1363z"/>
<path d="M16400 33683 l0 -7993 8600 0 8600 0 0 7993 0 7992 -1340 -1340
-1340 -1340 0 -5378 0 -5377 -5895 0 -5895 0 0 5352 0 5353 -1365 1365 -1365
1365 0 -7992z"/>
<path d="M34970 25000 l0 -16675 1365 1365 1365 1365 0 13945 0 13945 -1365
1365 -1365 1365 0 -16675z"/>
<path d="M16400 16323 l0 -7998 1365 1365 1365 1365 0 5352 0 5353 5895 0
5895 0 0 -5378 0 -5377 1340 -1340 1340 -1340 0 7998 0 7997 -8600 0 -8600 0
0 -7997z"/>
</g>
</svg>
